# xmcd CD database file
#
# Track frame offsets:
#	150
#	33589
#	52722
#	67218
#	79994
#	89649
#	104044
#	127425
#	149380
#	170428
#	190116
#	214291
#	239917
#	252983
#	269824
#
# Disc length: 3913 seconds
#
# Revision: 7
# Processed by: cddbd v1.5.2PL0 Copyright (c) Steve Scherf et al.
# Submitted via: CDex 1.70beta2
#
DISCID=fc0f470f
DTITLE=Various Artist - Best Jazz 100 (Disc3)
DYEAR=2006
DGENRE=Jazz
TTITLE0=Sing Sing Sing - Benny Goodman
TTITLE1=My Favorite Things - Johnny Hartman
TTITLE2=As Time Goes By - Julie London
TTITLE3=Someone To Watch Over Me - Coleman Hawkins
TTITLE4=Moon River - Nancy Wilson
TTITLE5=Can’t Take My Eyes Off Of You - Vikki Carr
TTITLE6=The Shadow Of Your Smile - Earl Klugh
TTITLE7=Don’t Worry，Be Happy - Bobby McFerrin
TTITLE8=Calling You - Holly Cole
TTITLE9=Makin’Whoopee - The Three Sounds
TTITLE10=Exactly Like You - Dianne Reeves
TTITLE11=Our Love Is Here To Stay - Dexter Gordon
TTITLE12=The Very Thought Of You - Nancy Wilson
TTITLE13=Easy Living - Clifford Brown
TTITLE14=Love Is A Many Splendored Thing - 寺井尚子
EXTD=YEAR: 2006
EXTT0=
EXTT1=
EXTT2=
EXTT3=
EXTT4=
EXTT5=
EXTT6=
EXTT7=
EXTT8=
EXTT9=
EXTT10=
EXTT11=
EXTT12=
EXTT13=
EXTT14=
PLAYORDER=
